Coordinates
version=1
nRows=27
nColumns=38
inDegrees=no

Units are S.I. units (second, meters, Newtons, ...)
If the header above contains a line with 'inDegrees', this indicates whether rotational values are in degrees (yes) or radians (no).

endheader
time	pelvis_tilt	pelvis_list	pelvis_rotation	pelvis_tx	pelvis_ty	pelvis_tz	hip_flexion_r	hip_adduction_r	hip_rotation_r	knee_angle_r	ankle_angle_r	subtalar_angle_r	mtp_angle_r	hip_flexion_l	hip_adduction_l	hip_rotation_l	knee_angle_l	ankle_angle_l	subtalar_angle_l	mtp_angle_l	lumbar_extension	lumbar_bending	lumbar_rotation	arm_flex_r	arm_add_r	arm_rot_r	elbow_flex_r	pro_sup_r	wrist_flex_r	wrist_dev_r	arm_flex_l	arm_add_l	arm_rot_l	elbow_flex_l	pro_sup_l	wrist_flex_l	wrist_dev_l
0	-3.08811	1.28295	-1.65579	0.716859	-0.475751	0.947577	-0.347035	-0.0705068	-0.41182	0.262648	0.125338	0	0	-0.372307	0.0257978	-0.181792	0	-0.0240462	0	0	-0.386136	0.0162112	0.054917	-0.147585	-0.376832	0.809098	0.457041	1.19972	0	0	-0.131567	-0.133923	-0.00571215	0.294299	1.5708	0	0
0.01	-3.07734	1.29588	-1.66387	0.717809	-0.476246	0.947316	-0.332626	-0.0701737	-0.411813	0.262437	0.123832	0	0	-0.356464	0.0255428	-0.178254	0	-0.0262551	0	0	-0.370741	0.00941274	0.0561484	-0.147474	-0.321165	0.649646	0.368247	1.34238	0	0	-0.14487	-0.147311	0.0321572	0.315724	1.5708	0	0
0.02	-3.07461	1.29829	-1.66558	0.718385	-0.477123	0.947367	-0.32878	-0.0696347	-0.412375	0.262637	0.122756	0	0	-0.352197	0.0247548	-0.176938	0	-0.0274546	0	0	-0.367737	0.00947565	0.0552598	-0.152522	-0.324108	0.63309	0.380844	1.3381	0	0	-0.153222	-0.151639	0.0257443	0.327246	1.5708	0	0
0.03	-3.07223	1.30019	-1.66667	0.718989	-0.478052	0.947426	-0.325835	-0.0687357	-0.412942	0.262254	0.122367	0	0	-0.348359	0.0238043	-0.175265	0	-0.0282283	0	0	-0.365476	0.00977168	0.0541161	-0.156781	-0.326471	0.615534	0.394029	1.32247	0	0	-0.161318	-0.156255	0.0206592	0.340291	1.5708	0	0
0.04	-3.06879	1.303	-1.66842	0.719608	-0.478372	0.947384	-0.324705	-0.0703208	-0.418425	0.25921	0.123806	0	0	-0.352663	0.0212898	-0.179796	0	-0.0266657	0	0	-0.361614	0.0100297	0.0529917	-0.160891	-0.327503	0.59679	0.406782	1.29408	0	0	-0.169079	-0.161771	0.0189818	0.354151	1.5708	0	0
0.05	-3.06658	1.30324	-1.66977	0.720455	-0.479577	0.947505	-0.324012	-0.0690005	-0.417951	0.257324	0.122274	0	0	-0.347836	0.0200338	-0.180076	0	-0.0268337	0	0	-0.361768	0.0100274	0.0535366	-0.163504	-0.328931	0.585594	0.420765	1.24019	0	0	-0.173847	-0.167265	0.0172739	0.365963	1.5708	0	0
0.06	-3.06418	1.30313	-1.67204	0.721353	-0.480909	0.947642	-0.323108	-0.0683511	-0.417664	0.256412	0.122444	0	0	-0.342994	0.0190467	-0.180798	0	-0.0267315	0	0	-0.36251	0.00982517	0.0549166	-0.165168	-0.329631	0.571325	0.434164	1.20058	0	0	-0.176517	-0.172079	0.0143195	0.376022	1.5708	0	0
0.07	-3.06187	1.30268	-1.67438	0.722257	-0.48226	0.947796	-0.32282	-0.0677554	-0.417573	0.254946	0.122407	0	0	-0.338941	0.0181303	-0.180922	0	-0.0271041	0	0	-0.363825	0.00959581	0.0568924	-0.166289	-0.329891	0.554365	0.448249	1.15965	0	0	-0.177711	-0.176693	0.013237	0.38605	1.5708	0	0
0.08	-3.05982	1.30184	-1.67637	0.723224	-0.483656	0.947988	-0.323584	-0.0666585	-0.417291	0.251928	0.121071	0	0	-0.335469	0.017053	-0.180896	0.00147994	-0.0275662	0	0	-0.365794	0.00917364	0.0589422	-0.16667	-0.329258	0.531074	0.463871	1.1178	0	0	-0.177166	-0.180875	0.010474	0.394552	1.5708	0	0
0.09	-3.05861	1.30056	-1.67712	0.724236	-0.485165	0.948174	-0.324735	-0.0650857	-0.416708	0.249047	0.120325	0	0	-0.331337	0.0153428	-0.182052	0.00786501	-0.0266908	0	0	-0.368693	0.00904093	0.0603184	-0.164592	-0.327986	0.514582	0.475746	1.0957	0	0	-0.175115	-0.184589	0.0060656	0.401578	1.5708	0	0
0.1	-3.06182	1.29472	-1.67493	0.725853	-0.487057	0.948737	-0.329622	-0.0590846	-0.408265	0.245507	0.115447	0	0	-0.340989	0.0180667	-0.149618	0	-0.0501863	0	0	-0.376973	0.00846414	0.0642424	-0.16111	-0.324963	0.501079	0.483985	1.07322	0	0	-0.171737	-0.188527	0.00193437	0.409428	1.5708	0	0
0.11	-3.0611	1.29348	-1.67522	0.726909	-0.488556	0.948919	-0.331186	-0.0570837	-0.406842	0.241469	0.112665	0	0	-0.339615	0.0167091	-0.148925	0	-0.0508215	0	0	-0.380051	0.00837347	0.0658266	-0.155696	-0.322093	0.491845	0.489398	1.05173	0	0	-0.167556	-0.191413	-0.000833825	0.417149	1.5708	0	0
0.12	-3.05715	1.29927	-1.6837	0.727623	-0.490697	0.948681	-0.330861	-0.0580126	-0.413862	0.222633	0.108041	0	0	-0.335348	0.0171282	-0.154842	0	-0.0491155	0	0	-0.377506	0.00800616	0.071779	-0.147313	-0.322665	0.492418	0.495767	1.00052	0	0	-0.15931	-0.190654	-0.00348395	0.421387	1.5708	0	0
0.13	-3.05534	1.29399	-1.6802	0.72892	-0.491371	0.949082	-0.332309	-0.0572784	-0.408742	0.233112	0.111521	0	0	-0.333787	0.0129515	-0.155405	3.30557e-09	-0.0446858	0	0	-0.382452	0.00726181	0.068543	-0.140508	-0.316998	0.490166	0.497096	0.990385	0	0	-0.155815	-0.195376	-0.00492806	0.42941	1.5708	0	0
0.14	-3.05164	1.29353	-1.68228	0.729785	-0.493205	0.949178	-0.331434	-0.056908	-0.409905	0.232375	0.111014	0	0	-0.320167	0.010044	-0.163652	0.0200292	-0.0359501	0	0	-0.385203	0.00675724	0.06895	-0.130487	-0.313668	0.490287	0.496962	0.982199	0	0	-0.147939	-0.196836	-0.00465459	0.435064	1.5708	0	0
0.15	-3.04825	1.29363	-1.68341	0.730555	-0.495212	0.949232	-0.329615	-0.0562678	-0.41099	0.232054	0.111619	0	0	-0.300865	0.00553124	-0.178114	0.0507191	-0.0220073	0	0	-0.38789	0.00662005	0.068602	-0.118657	-0.310311	0.494355	0.494669	0.977314	0	0	-0.13864	-0.197672	-0.00504637	0.439226	1.5708	0	0
0.16	-3.04559	1.29388	-1.68422	0.731414	-0.497234	0.949272	-0.327634	-0.0551934	-0.410713	0.2313	0.11076	0	0	-0.281341	0.00030945	-0.191896	0.0818336	-0.00817776	0	0	-0.390521	0.00651087	0.0684025	-0.105362	-0.306753	0.503476	0.489772	0.977008	0	0	-0.128342	-0.198046	-0.00507982	0.442269	1.5708	0	0
0.17	-3.04422	1.28775	-1.67732	0.731423	-0.49957	0.949988	-0.335233	-0.0521428	-0.41624	0.226298	0.10666	0	0	-0.288861	-0.00572923	-0.169239	0.0708566	-0.017067	0	0	-0.400943	0.0086464	0.0617676	-0.0896373	-0.303915	0.51704	0.483921	0.988828	0	0	-0.116716	-0.19819	-0.00445856	0.446937	1.5708	0	0
0.18	-3.07769	1.30066	-1.64737	0.734028	-0.501368	0.948491	-0.319151	-0.0372393	-0.402937	0.224991	0.105644	0	0	-0.259737	-0.023321	-0.178655	0.097736	-0.00120322	0	0	-0.390125	0.016044	0.069706	-0.0766618	-0.298114	0.522228	0.478356	0.988278	0	0	-0.107165	-0.199581	-0.00166517	0.450173	1.5708	0	0
0.19	-3.06493	1.30788	-1.66125	0.733872	-0.504815	0.948059	-0.311465	-0.039799	-0.411043	0.2143	0.100755	0	0	-0.21747	-0.0181068	-0.2109	0.15797	0.0238281	0	0	-0.388831	0.0148049	0.0724332	-0.0595795	-0.298093	0.518396	0.479245	0.977093	0	0	-0.0905902	-0.19518	0.00129581	0.449112	1.5708	0	0
0.2	-3.07331	1.30524	-1.64491	0.734529	-0.50556	0.948149	-0.309994	-0.0351581	-0.404648	0.225073	0.103947	0	0	-0.201867	-0.0287234	-0.218684	0.190183	0.0390559	0	0	-0.39146	0.0185346	0.0677476	-0.0486564	-0.293214	0.520826	0.478529	0.969288	0	0	-0.081361	-0.196248	0.00335093	0.452031	1.5708	0	0
0.21	-3.04625	1.28922	-1.66984	0.734503	-0.507078	0.950049	-0.32886	-0.0437164	-0.41045	0.219428	0.101508	0	0	-0.220956	-0.0252735	-0.191315	0.174785	0.0226619	0	0	-0.4101	0.0112369	0.0653328	-0.0340994	-0.29276	0.536887	0.479705	0.956654	0	0	-0.0688752	-0.194962	0.0055933	0.455524	1.5708	0	0
0.22	-3.04032	1.29167	-1.67342	0.734521	-0.508926	0.949838	-0.32405	-0.0449476	-0.412321	0.220297	0.101996	0	0	-0.190444	-0.0230372	-0.22487	0.226457	0.0435662	0	0	-0.410594	0.01141	0.0669146	-0.0109842	-0.285924	0.54848	0.45412	0.963733	0	0	-0.0549398	-0.192176	0.009364	0.456127	1.5708	0	0
0.23	-3.05969	1.29121	-1.65632	0.736025	-0.510062	0.949846	-0.327282	-0.0356785	-0.404637	0.211778	0.0978977	0	0	-0.18656	-0.0407642	-0.219954	0.229256	0.0429	0	0	-0.411704	0.0156272	0.0709221	-0.0101335	-0.289819	0.555111	0.480595	0.967312	0	0	-0.0492551	-0.197824	0.0342767	0.468595	1.57009	0	0
0.24	3.13547	1.25993	-1.57915	0.739328	-0.512528	0.953682	-0.373374	0.00122489	-0.366821	0.175943	0.0671059	0	0	-0.213218	-0.0757352	-0.261707	0.246418	0.0488233	0	0	-0.452022	0.0345519	0.0893224	0.00700127	-0.291245	0.565376	0.487389	0.968867	0	0	-0.0303299	-0.189319	0.0140048	0.46747	1.5708	0	0
0.25	-3.07589	1.29009	-1.6417	0.737189	-0.512763	0.949639	-0.331526	-0.0274156	-0.396258	0.199551	0.0929894	0	0	-0.150956	-0.0547438	-0.293173	0.300908	0.0702007	0	0	-0.416137	0.0200426	0.0781128	0.0108274	-0.289987	0.573616	0.488483	0.977301	0	0	-0.0248908	-0.185647	0.0153842	0.468929	1.5708	0	0
0.26	-3.08453	1.2909	-1.63653	0.738055	-0.513963	0.949444	-0.329144	-0.0254854	-0.39542	0.199859	0.0941033	0	0	-0.140883	-0.0632788	-0.317487	0.318263	0.075456	0	0	-0.416514	0.0212844	0.084284	0.0206672	-0.29017	0.591417	0.490159	1.00564	0	0	-0.015096	-0.182888	0.0183647	0.474354	1.5708	0	0
